<!DOCTYPE svg PUBLIC "-//W3C//DTD SVG 1.1//EN" "http://www.w3.org/Graphics/SVG/1.1/DTD/svg11.dtd">
<!-- Uploaded to: SVG Repo, www.svgrepo.com, Transformed by: SVG Repo Mixer Tools -->
<svg width="800px" height="800px" viewBox="0 0 512 512" version="1.1" xml:space="preserve" xmlns="http://www.w3.org/2000/svg" xmlns:xlink="http://www.w3.org/1999/xlink" fill="#dff2fe">

<g id="SVGRepo_bgCarrier" stroke-width="0"/>

<g id="SVGRepo_tracerCarrier" stroke-linecap="round" stroke-linejoin="round"/>

<g id="SVGRepo_iconCarrier"> <style type="text/css"> .st0{fill:#dff2fe;} </style> <g id="Layer_1"/> <g id="Layer_2"> <g> <path class="st0" d="M256,461.04c113.06,0,205.04-91.98,205.04-205.04S369.06,50.96,256,50.96S50.96,142.94,50.96,256 S142.94,461.04,256,461.04z M256,82.96c95.42,0,173.04,77.63,173.04,173.04S351.42,429.04,256,429.04S82.96,351.42,82.96,256 S160.58,82.96,256,82.96z"/> <path class="st0" d="M256,272h107.79c8.84,0,16-7.16,16-16s-7.16-16-16-16H272v-91.08c0-8.84-7.16-16-16-16s-16,7.16-16,16V256 C240,264.84,247.16,272,256,272z"/> </g> </g> </g>

</svg>
