<?xml version="1.0" encoding="UTF-8" standalone="no"?>
<!-- Uploaded to: SVG Repo, www.svgrepo.com, Transformed by: SVG Repo Mixer Tools -->

<svg
   fill="#151e29"
   version="1.1"
   id="Capa_1"
   width="732.7475"
   height="599.427"
   viewBox="-52.89 -52.89 581.34355 475.5704"
   xml:space="preserve"
   stroke="#151e29"
   stroke-width="0.00528919"
   sodipodi:docname="circular-arrow.svg"
   inkscape:version="1.2.2 (b0a8486541, 2022-12-01)"
   xmlns:inkscape="http://www.inkscape.org/namespaces/inkscape"
   xmlns:sodipodi="http://sodipodi.sourceforge.net/DTD/sodipodi-0.dtd"
   xmlns="http://www.w3.org/2000/svg"
   xmlns:svg="http://www.w3.org/2000/svg"><defs
   id="defs4275" /><sodipodi:namedview
   id="namedview4273"
   pagecolor="#ffffff"
   bordercolor="#000000"
   borderopacity="0.25"
   inkscape:showpageshadow="2"
   inkscape:pageopacity="0.0"
   inkscape:pagecheckerboard="0"
   inkscape:deskcolor="#d1d1d1"
   showgrid="false"
   inkscape:zoom="0.7168295"
   inkscape:cx="126.25038"
   inkscape:cy="289.46911"
   inkscape:window-width="1854"
   inkscape:window-height="1011"
   inkscape:window-x="0"
   inkscape:window-y="0"
   inkscape:window-maximized="1"
   inkscape:current-layer="Capa_1" />

<g
   id="SVGRepo_bgCarrier"
   stroke-width="0"
   transform="translate(-52.88771,-79.742355)" />

<g
   id="SVGRepo_tracerCarrier"
   stroke-linecap="round"
   stroke-linejoin="round"
   transform="translate(-52.88771,-79.742355)" />

<g
   id="SVGRepo_iconCarrier"
   transform="translate(-52.88771,-79.742355)"
   style="fill:#151e29;fill-opacity:1"> <g
   id="g4269"
   style="fill:#151e29;fill-opacity:1"> <g
   id="g4267"
   style="fill:#151e29;fill-opacity:1"> <path
   d="m 518.946,196.148 c -5.836,-19.461 -14.184,-38.143 -24.813,-55.521 l -39.156,23.954 c 8.571,14.012 15.301,29.067 20.004,44.75 z"
   id="path4253"
   style="fill:#151e29;fill-opacity:1" /> <path
   d="m 492.208,391.4 -38.785,-24.547 c -8.771,13.855 -19.309,26.566 -31.319,37.781 l 31.322,33.553 c 14.871,-13.885 27.919,-29.625 38.782,-46.787 z"
   id="path4255"
   style="fill:#151e29;fill-opacity:1" /> <path
   d="m 524.559,309.989 -45.062,-8.745 c -3.125,16.096 -8.326,31.744 -15.463,46.512 l 41.329,19.97 c 8.859,-18.33 15.319,-37.755 19.196,-57.737 z"
   id="path4257"
   style="fill:#151e29;fill-opacity:1" /> <path
   d="m 362.513,442.524 17.057,42.613 c 18.847,-7.546 36.698,-17.516 53.061,-29.64 l -27.326,-36.882 c -13.199,9.784 -27.599,17.825 -42.792,23.909 z"
   id="path4259"
   style="fill:#151e29;fill-opacity:1" /> <path
   d="m 528.919,264.472 c 0,-14.085 -1.242,-28.207 -3.696,-41.968 l -45.188,8.06 c 1.979,11.108 2.986,22.516 2.983,33.908 0,5.046 -0.195,10.135 -0.587,15.123 l 45.759,3.577 c 0.484,-6.176 0.729,-12.467 0.729,-18.7 z"
   id="path4261"
   style="fill:#151e29;fill-opacity:1" /> <path
   d="m 341.818,449.461 c -15.753,4.29 -32.1,6.545 -48.59,6.708 l 0.446,45.896 c 20.41,-0.199 40.665,-2.996 60.203,-8.317 z"
   id="path4263"
   style="fill:#151e29;fill-opacity:1" /> <path
   d="m 70.846,324.068 c 3.21,3.926 8.409,3.926 11.619,0 l 69.162,-84.621 c 3.21,-3.926 1.698,-7.108 -3.372,-7.108 h -45.903 c 0.364,-2.148 0.716,-4.299 1.151,-6.423 0.006,-0.028 0.012,-0.059 0.018,-0.086 0.566,-2.769 1.218,-5.514 1.903,-8.253 9.345,-37.026 29.48,-69.805 56.864,-94.771 0.159,-0.144 0.321,-0.288 0.48,-0.435 1.661,-1.505 3.351,-2.98 5.064,-4.428 5.141,-4.339 10.511,-8.415 16.093,-12.204 0.128,-0.085 0.254,-0.177 0.382,-0.263 27.929,-18.859 61.068,-30.551 96.763,-32.439 0.468,-0.024 0.936,-0.034 1.404,-0.055 2.473,-0.11 4.951,-0.172 7.433,-0.19 0.719,-0.006 1.438,-0.021 2.157,-0.019 2.567,0.009 5.126,0.077 7.675,0.184 0.908,0.04 1.812,0.095 2.717,0.147 1.998,0.113 3.99,0.26 5.982,0.435 0.771,0.067 1.546,0.123 2.316,0.199 2.564,0.257 5.116,0.572 7.656,0.93 0.808,0.113 1.612,0.242 2.417,0.367 8.256,1.27 16.381,3.072 24.337,5.389 1.202,0.352 2.398,0.729 3.592,1.102 1.261,0.395 2.516,0.805 3.768,1.227 2.074,0.697 4.131,1.435 6.178,2.203 1.169,0.438 2.341,0.869 3.501,1.331 1.478,0.587 2.943,1.208 4.406,1.833 0.826,0.352 1.649,0.716 2.47,1.08 2.968,1.319 5.905,2.711 8.807,4.18 0.33,0.168 0.667,0.325 0.997,0.496 1.444,0.744 2.873,1.518 4.3,2.298 0.826,0.453 1.646,0.912 2.463,1.377 1.315,0.744 2.632,1.487 3.929,2.265 l 0.004,-0.006 c 6.624,3.969 13.017,8.375 19.17,13.164 2.394,1.861 4.743,3.782 7.057,5.762 0.637,0.544 1.285,1.071 1.916,1.625 2.387,2.096 4.722,4.266 7.02,6.49 6.371,6.172 12.329,12.766 17.794,19.768 l 36.182,-28.241 c -6.436,-8.244 -13.415,-16.047 -20.863,-23.37 -0.059,-0.061 -0.11,-0.125 -0.172,-0.184 -0.284,-0.278 -0.584,-0.535 -0.868,-0.813 -2.137,-2.075 -4.309,-4.098 -6.509,-6.083 -0.649,-0.584 -1.295,-1.175 -1.949,-1.753 -2.405,-2.124 -4.848,-4.192 -7.323,-6.209 -0.89,-0.722 -1.799,-1.423 -2.698,-2.133 -0.931,-0.734 -1.846,-1.484 -2.788,-2.203 l -0.03,0.04 C 428.315,70.149 420.83,65.095 413.113,60.471 l 0.024,-0.043 c -1.775,-1.062 -3.574,-2.083 -5.374,-3.1 -0.722,-0.407 -1.443,-0.814 -2.169,-1.212 -6.087,-3.348 -12.305,-6.414 -18.647,-9.204 -0.561,-0.248 -1.12,-0.493 -1.684,-0.734 -6.193,-2.668 -12.497,-5.067 -18.904,-7.191 -1.059,-0.352 -2.117,-0.701 -3.18,-1.037 -1.826,-0.578 -3.659,-1.15 -5.502,-1.686 -0.106,-0.031 -0.214,-0.067 -0.321,-0.098 l -0.003,0.009 c -8.656,-2.494 -17.476,-4.474 -26.423,-5.97 l 0.009,-0.052 c -0.908,-0.153 -1.829,-0.272 -2.741,-0.416 -1.166,-0.181 -2.329,-0.364 -3.501,-0.529 -3.069,-0.432 -6.147,-0.811 -9.244,-1.123 -1.001,-0.101 -2.004,-0.171 -3.008,-0.26 -2.448,-0.214 -4.905,-0.395 -7.369,-0.536 -1.092,-0.061 -2.182,-0.131 -3.276,-0.181 -3.198,-0.138 -6.405,-0.22 -9.624,-0.232 -0.291,0 -0.578,-0.021 -0.869,-0.021 -0.545,0 -1.077,0.037 -1.622,0.04 -3.146,0.021 -6.278,0.095 -9.394,0.238 -0.554,0.025 -1.108,0.037 -1.662,0.067 -2.8,0.147 -5.597,0.331 -8.378,0.576 l 0.006,0.064 c -9.082,0.802 -18.032,2.057 -26.793,3.855 l -0.003,-0.015 c -3.724,0.762 -7.417,1.643 -11.099,2.583 -0.223,0.059 -0.45,0.113 -0.676,0.171 -15.78,4.079 -31.126,9.762 -45.75,17.008 l 0.052,0.107 c -8.106,4.027 -15.94,8.513 -23.492,13.406 l -0.086,-0.134 c -17.05,11.028 -32.659,24.226 -46.396,39.232 l 0.095,0.089 c -6.089,6.649 -11.775,13.666 -17.087,20.973 l -0.128,-0.092 c -11.968,16.49 -21.769,34.45 -29.128,53.382 l 0.11,0.043 c -3.265,8.375 -6.108,16.955 -8.418,25.759 l -0.046,-0.012 c -1.025,3.917 -1.919,7.871 -2.742,11.839 -0.071,0.336 -0.144,0.67 -0.211,1.006 -0.725,3.571 -1.371,7.17 -1.934,10.796 -0.076,0.496 -0.141,0.998 -0.214,1.493 -0.147,1 -0.297,1.999 -0.435,3.002 H 5.057 c -5.071,0 -6.579,3.183 -3.373,7.108 z"
   id="path4265"
   style="fill:#151e29;fill-opacity:1" /> </g> </g> </g>

</svg>
