<?xml version="1.0" encoding="UTF-8" standalone="no"?>
<svg
   viewBox="0 0 1000 100"
   version="1.1"
   id="svg12"
   sodipodi:docname="intersecting-waves_upsidedown.svg"
   inkscape:version="1.2.2 (b0a8486541, 2022-12-01)"
   xmlns:inkscape="http://www.inkscape.org/namespaces/inkscape"
   xmlns:sodipodi="http://sodipodi.sourceforge.net/DTD/sodipodi-0.dtd"
   xmlns="http://www.w3.org/2000/svg"
   xmlns:svg="http://www.w3.org/2000/svg">
  <defs
     id="defs16" />
  <sodipodi:namedview
     id="namedview14"
     pagecolor="#ffffff"
     bordercolor="#000000"
     borderopacity="0.25"
     inkscape:showpageshadow="2"
     inkscape:pageopacity="0.0"
     inkscape:pagecheckerboard="0"
     inkscape:deskcolor="#d1d1d1"
     showgrid="false"
     inkscape:zoom="0.70710678"
     inkscape:cx="543.05801"
     inkscape:cy="21.92031"
     inkscape:window-width="1854"
     inkscape:window-height="1011"
     inkscape:window-x="0"
     inkscape:window-y="0"
     inkscape:window-maximized="1"
     inkscape:current-layer="svg12" />
  <g
     fill="#151e29"
     id="g10"
     transform="rotate(-179.99816,500.005,50)">
    <path
       d="m 0,1 v 99 C 134.3,100 153.7,1 296,1 Z"
       opacity="0.5"
       id="path2" />
    <path
       d="m 1000,4 0.01,95.982266 C 833.30711,99.982266 833.3,3.6 666.7,3.6 500.1,3.6 500,90 333.3,90 166.6,90 166.7,4 0,4 Z"
       opacity="0.5"
       id="path4"
       sodipodi:nodetypes="ccsscc" />
    <path
       d="M 617,1 V 87 C 372,119 384,1 196,1 Z"
       opacity="0.5"
       id="path6" />
    <path
       d="M 1000,0 H 0 V 52 C 62.5,28 125,4 250,4 c 250,0 250,96 500,96 125,0 187.5,-24 250,-48 z"
       id="path8" />
  </g>
</svg>
