<?xml version="1.0" encoding="UTF-8" standalone="no"?>
<svg
   viewBox="0 0 1000 100"
   version="1.1"
   id="svg12"
   sodipodi:docname="intersecting-waves.svg"
   inkscape:version="1.2.2 (b0a8486541, 2022-12-01)"
   xmlns:inkscape="http://www.inkscape.org/namespaces/inkscape"
   xmlns:sodipodi="http://sodipodi.sourceforge.net/DTD/sodipodi-0.dtd"
   xmlns="http://www.w3.org/2000/svg"
   xmlns:svg="http://www.w3.org/2000/svg">
  <defs
     id="defs16" />
  <sodipodi:namedview
     id="namedview14"
     pagecolor="#ffffff"
     bordercolor="#000000"
     borderopacity="0.25"
     inkscape:showpageshadow="2"
     inkscape:pageopacity="0.0"
     inkscape:pagecheckerboard="0"
     inkscape:deskcolor="#d1d1d1"
     showgrid="false"
     inkscape:zoom="2.8284271"
     inkscape:cx="195.6918"
     inkscape:cy="58.159533"
     inkscape:window-width="1854"
     inkscape:window-height="1011"
     inkscape:window-x="0"
     inkscape:window-y="0"
     inkscape:window-maximized="1"
     inkscape:current-layer="svg12" />
  <g
     fill="#151E29"
     id="g10">
    <path
       d="M0 1v99c134.3 0 153.7-99 296-99H0Z"
       opacity=".5"
       id="path2" />
    <path
       d="m 1000,4 0.01,95.982266 C 833.30711,99.982266 833.3,3.6 666.7,3.6 500.1,3.6 500,90 333.3,90 166.6,90 166.7,4 0,4 Z"
       opacity="0.5"
       id="path4"
       sodipodi:nodetypes="ccsscc" />
    <path
       d="M617 1v86C372 119 384 1 196 1h421Z"
       opacity=".5"
       id="path6" />
    <path
       d="M1000 0H0v52C62.5 28 125 4 250 4c250 0 250 96 500 96 125 0 187.5-24 250-48V0Z"
       id="path8" />
  </g>
</svg>
