<?xml version="1.0" encoding="UTF-8" standalone="no"?>
<!-- Created with Inkscape (http://www.inkscape.org/) -->

<svg
   version="1.1"
   id="svg10165"
   width="117.68441"
   height="150.72005"
   viewBox="0 0 117.68441 150.72005"
   sodipodi:docname="ChatGPT Image 1 de dez. de 2025, 00_06_55203.png"
   xml:space="preserve"
   xmlns:inkscape="http://www.inkscape.org/namespaces/inkscape"
   xmlns:sodipodi="http://sodipodi.sourceforge.net/DTD/sodipodi-0.dtd"
   xmlns:xlink="http://www.w3.org/1999/xlink"
   xmlns="http://www.w3.org/2000/svg"
   xmlns:svg="http://www.w3.org/2000/svg"><defs
     id="defs10169"><linearGradient
       inkscape:collect="always"
       id="linearGradient25587"><stop
         style="stop-color:#dcf907;stop-opacity:1;"
         offset="0"
         id="stop25581" /><stop
         style="stop-color:#0bd83f;stop-opacity:1;"
         offset="0.5"
         id="stop25583" /><stop
         style="stop-color:#06efdd;stop-opacity:1;"
         offset="1"
         id="stop25585" /></linearGradient><linearGradient
       inkscape:collect="always"
       xlink:href="#linearGradient12974"
       id="linearGradient12968"
       x1="34.656166"
       y1="62.137558"
       x2="169.69463"
       y2="62.137558"
       gradientUnits="userSpaceOnUse"
       gradientTransform="matrix(0.79712612,0.01916458,-0.02092941,0.76686999,-13.82982,-6.0936094)" /><linearGradient
       inkscape:collect="always"
       id="linearGradient12974"><stop
         style="stop-color:#06efdd;stop-opacity:1;"
         offset="0"
         id="stop12970" /><stop
         style="stop-color:#0bd83f;stop-opacity:1;"
         offset="0.5"
         id="stop12976" /><stop
         style="stop-color:#dcf907;stop-opacity:1;"
         offset="1"
         id="stop12972" /></linearGradient><linearGradient
       inkscape:collect="always"
       xlink:href="#linearGradient25587"
       id="linearGradient25578"
       gradientUnits="userSpaceOnUse"
       gradientTransform="matrix(-0.79708076,-0.0209665,0.02266293,-0.76682072,136.82829,161.38934)"
       x1="34.656166"
       y1="62.137558"
       x2="169.69463"
       y2="62.137558" /></defs><sodipodi:namedview
     id="namedview10167"
     pagecolor="#ffffff"
     bordercolor="#000000"
     borderopacity="0.25"
     inkscape:showpageshadow="2"
     inkscape:pageopacity="0.0"
     inkscape:pagecheckerboard="0"
     inkscape:deskcolor="#d1d1d1"
     showgrid="false" /><g
     inkscape:groupmode="layer"
     inkscape:label="Image"
     id="g10171"
     transform="translate(-2.6848403,-2.1811327)"><path
       id="Seleção #2"
       fill="none"
       stroke="#000000"
       stroke-width="0.547103"
       d="M 35.0587,84.721322 C 29.38827,83.213402 23.00501,79.360376 18.91255,73.825291 14.86359,68.349034 13.69784,56.173209 14.69234,52.53481 17.03505,43.182004 24.0415,36.415725 31.30156,29.200847 38.8315,21.717767 44.35186,15.704519 52.44642,10.476714 55.81174,7.9748596 66.61338,3.5468946 74.651097,2.5435766 c 9.15916,-1.143308 19.67463,0.466267 27.079133,4.150286 8.57093,3.8104324 11.07136,5.3499014 18.63902,11.6658474 C 102.38318,35.777253 67.43857,72.199002 60.76198,78.209224 50.28242,87.642852 39.24555,85.981842 35.0587,84.721322 Z"
       sodipodi:nodetypes="cscscsccsc"
       style="fill:url(#linearGradient12968);fill-opacity:1;stroke:none;stroke-opacity:1" /><path
       id="Seleção #2-1"
       fill="none"
       stroke="#000000"
       stroke-width="0.547103"
       d="m 88.145187,70.464127 c 5.66701,1.520745 12.041543,5.388185 16.121483,10.932505 4.03657,5.4854 5.17479,17.66384 4.17207,21.299968 -2.36385,9.34749 -9.385583,16.09791 -16.661933,23.29636 -7.54684,7.46604 -13.84984,14.44852 -21.17357,18.84129 -2.801307,1.86376 -14.196157,6.73277 -22.236107,7.71792 -9.16173,1.12259 -19.67353,-0.51075 -27.06969,-4.2115 C 12.73515,144.51088 10.2382,142.96576 2.6848403,136.63272 20.71024,119.25588 55.73709,82.913222 62.42726,76.918107 72.928117,67.50819 83.961197,69.194146 88.145187,70.464127 Z"
       sodipodi:nodetypes="cscscsccsc"
       style="fill:url(#linearGradient25578);fill-opacity:1;stroke:none;stroke-opacity:1" /></g></svg>
