<?xml version="1.0" encoding="UTF-8" standalone="no"?>
<!-- Created with Inkscape (http://www.inkscape.org/) -->

<svg
   version="1.1"
   id="svg10165"
   width="199.99998"
   height="199.99998"
   viewBox="0 0 199.99998 199.99999"
   sodipodi:docname="staxGradient (Cópia).svg"
   xml:space="preserve"
   inkscape:version="1.2.2 (b0a8486541, 2022-12-01)"
   xmlns:inkscape="http://www.inkscape.org/namespaces/inkscape"
   xmlns:sodipodi="http://sodipodi.sourceforge.net/DTD/sodipodi-0.dtd"
   xmlns:xlink="http://www.w3.org/1999/xlink"
   xmlns="http://www.w3.org/2000/svg"
   xmlns:svg="http://www.w3.org/2000/svg"><defs
     id="defs10169"><linearGradient
       inkscape:collect="always"
       xlink:href="#linearGradient12974"
       id="linearGradient12968"
       x1="34.656166"
       y1="62.137558"
       x2="169.69463"
       y2="62.137558"
       gradientUnits="userSpaceOnUse"
       gradientTransform="matrix(0.79712612,0.01916458,-0.02092941,0.76686999,27.773712,17.64099)" /><linearGradient
       inkscape:collect="always"
       id="linearGradient12974"><stop
         style="stop-color:#06efdd;stop-opacity:1;"
         offset="0"
         id="stop12970" /><stop
         style="stop-color:#0bd83f;stop-opacity:1;"
         offset="0.5"
         id="stop12976" /><stop
         style="stop-color:#dcf907;stop-opacity:1;"
         offset="1"
         id="stop12972" /></linearGradient><linearGradient
       inkscape:collect="always"
       xlink:href="#linearGradient25587"
       id="linearGradient25578"
       gradientUnits="userSpaceOnUse"
       gradientTransform="matrix(-0.79708076,-0.0209665,0.02266293,-0.76682072,178.43182,185.12395)"
       x1="34.656166"
       y1="62.137558"
       x2="169.69463"
       y2="62.137558" /><linearGradient
       inkscape:collect="always"
       id="linearGradient25587"><stop
         style="stop-color:#dcf907;stop-opacity:1;"
         offset="0"
         id="stop25581" /><stop
         style="stop-color:#0bd83f;stop-opacity:1;"
         offset="0.5"
         id="stop25583" /><stop
         style="stop-color:#06efdd;stop-opacity:1;"
         offset="1"
         id="stop25585" /></linearGradient></defs><sodipodi:namedview
     id="namedview10167"
     pagecolor="#ffffff"
     bordercolor="#000000"
     borderopacity="0.25"
     inkscape:showpageshadow="2"
     inkscape:pageopacity="0.0"
     inkscape:pagecheckerboard="0"
     inkscape:deskcolor="#d1d1d1"
     showgrid="false"
     inkscape:zoom="2.6904185"
     inkscape:cx="101.28536"
     inkscape:cy="98.311843"
     inkscape:window-width="1854"
     inkscape:window-height="1011"
     inkscape:window-x="0"
     inkscape:window-y="0"
     inkscape:window-maximized="1"
     inkscape:current-layer="g10171" /><g
     inkscape:groupmode="layer"
     inkscape:label="Image"
     id="g10171"
     transform="translate(-2.6848403,-2.1811327)"><path
       id="Seleção #2-3"
       fill="none"
       stroke="#000000"
       stroke-width="0.49884"
       d="m 35.196821,2.7798427 c 0,0 15.802079,-0.34929 15.802079,-0.34929 0,0 27.65362,0 27.65362,0 0,0 86.25298,0 86.25298,0 14.12967,0.0202 27.50876,10.9826393 32.6181,24.1819593 2.53491,6.562711 2.40323,13.286641 3.04848,20.151629 0,0 1.20491,20.82335 1.20491,20.82335 0,0 0.65842,12.7627 0.65842,12.7627 0,0 0,40.974989 0,40.974989 0,0 -0.65842,12.76269 -0.65842,12.76269 0,0 -1.20491,20.82336 -1.20491,20.82336 -0.50698,5.3872 -0.40822,10.82142 -1.74481,16.1213 -2.57442,10.21016 -10.45571,19.64113 -19.43655,24.64545 -8.26317,4.60129 -14.72884,4.34604 -23.7031,4.97074 0,0 -18.43575,1.28298 -18.43575,1.28298 0,0 -69.13406,0 -69.13406,0 0,0 -18.435759,-1.22925 -18.435759,-1.22925 C 34.419891,199.21124 26.19623,199.38588 14.89774,186.48212 5.9234903,176.22494 5.5942803,165.7528 4.8568503,152.90278 c 0,0 -1.26417,-26.20384 -1.26417,-26.20384 0,0 -0.65842,-10.07581 -0.65842,-10.07581 0,0 0,-31.570889 0,-31.570889 0,0 0.65842,-12.7627 0.65842,-12.7627 0,0 1.22466,-22.84523 1.22466,-22.84523 0.51357,-6.952318 0.40164,-14.112858 2.56125,-20.816639 C 11.56614,15.596282 22.4169,6.2459227 35.196821,2.7798427 Z"
       style="fill:#151e29;fill-opacity:1" /><path
       id="Seleção #2"
       fill="none"
       stroke="#000000"
       stroke-width="0.547103"
       d="m 76.66223,108.45593 c -5.67043,-1.50792 -12.05369,-5.36094 -16.14615,-10.896036 -4.04896,-5.47626 -5.21471,-17.65208 -4.22021,-21.29048 2.34271,-9.352812 9.34916,-16.119082 16.60922,-23.333962 7.52994,-7.48308 13.0503,-13.49633 21.14486,-18.72414 3.36532,-2.50185 14.16696,-6.92982 22.20468,-7.93313 9.15916,-1.14331 19.67463,0.46626 27.07913,4.15028 8.57093,3.81044 11.07136,5.3499 18.63902,11.66585 -17.98607,17.41754 -52.93068,53.839292 -59.60727,59.849518 -10.47956,9.43363 -21.51643,7.77262 -25.70328,6.5121 z"
       sodipodi:nodetypes="cscscsccsc"
       style="fill:url(#linearGradient12968);fill-opacity:1;stroke:none;stroke-opacity:1" /><path
       id="Seleção #2-1"
       fill="none"
       stroke="#000000"
       stroke-width="0.547103"
       d="m 129.74872,94.198734 c 5.66701,1.52074 12.04154,5.38818 16.12148,10.932506 4.03657,5.4854 5.17479,17.66383 4.17207,21.29997 -2.36385,9.34749 -9.38558,16.09791 -16.66193,23.29636 -7.54684,7.46604 -13.84984,14.44852 -21.17357,18.84129 -2.80131,1.86376 -14.19616,6.73277 -22.23611,7.71792 -9.16173,1.12259 -19.67353,-0.51075 -27.06969,-4.2115 -8.56229,-3.82979 -11.05924,-5.37491 -18.6126,-11.70795 18.0254,-17.37684 53.05225,-53.7195 59.74242,-59.71462 10.50086,-9.409916 21.53394,-7.723956 25.71793,-6.453976 z"
       sodipodi:nodetypes="cscscsccsc"
       style="fill:url(#linearGradient25578);fill-opacity:1;stroke:none;stroke-opacity:1" /></g></svg>
